<svg width="159" height="46" viewBox="0 0 159 46" fill="none" xmlns="http://www.w3.org/2000/svg">
<path d="M59.394 41C59.086 41 58.8013 40.9253 58.54 40.776C58.288 40.6267 58.0873 40.426 57.938 40.174C57.7887 39.9127 57.714 39.628 57.714 39.32V38.928H58.848V39.32C58.848 39.4693 58.8993 39.6 59.002 39.712C59.114 39.8147 59.2447 39.866 59.394 39.866H66.114C66.2633 39.866 66.3893 39.8147 66.492 39.712C66.604 39.6 66.66 39.4693 66.66 39.32V37.066C66.66 36.9167 66.604 36.7907 66.492 36.688C66.3893 36.5853 66.2633 36.534 66.114 36.534H59.394C59.086 36.534 58.8013 36.4593 58.54 36.31C58.288 36.1513 58.0873 35.946 57.938 35.694C57.7887 35.442 57.714 35.162 57.714 34.854V32.6C57.714 32.292 57.7887 32.012 57.938 31.76C58.0873 31.4987 58.288 31.2933 58.54 31.144C58.8013 30.9947 59.086 30.92 59.394 30.92H66.114C66.422 30.92 66.702 30.9947 66.954 31.144C67.2153 31.2933 67.4207 31.4987 67.57 31.76C67.7193 32.012 67.794 32.292 67.794 32.6V32.992H66.66V32.6C66.66 32.4507 66.604 32.3247 66.492 32.222C66.3893 32.11 66.2633 32.054 66.114 32.054H59.394C59.2447 32.054 59.114 32.11 59.002 32.222C58.8993 32.3247 58.848 32.4507 58.848 32.6V34.854C58.848 35.0033 58.8993 35.1293 59.002 35.232C59.114 35.3347 59.2447 35.386 59.394 35.386H66.114C66.422 35.386 66.702 35.4653 66.954 35.624C67.2153 35.7733 67.4207 35.974 67.57 36.226C67.7193 36.478 67.794 36.758 67.794 37.066V39.32C67.794 39.628 67.7193 39.9127 67.57 40.174C67.4207 40.426 67.2153 40.6267 66.954 40.776C66.702 40.9253 66.422 41 66.114 41H59.394ZM85.5077 41C85.1904 41 84.9011 40.9253 84.6397 40.776C84.3877 40.6173 84.1871 40.412 84.0377 40.16C83.8884 39.8987 83.8137 39.614 83.8137 39.306V30.22H84.9617V32.88H88.4757V34.028H84.9617V39.306C84.9617 39.4553 85.0131 39.586 85.1157 39.698C85.2277 39.8007 85.3584 39.852 85.5077 39.852H88.4757V41H85.5077ZM105.782 41C105.474 41 105.189 40.9253 104.928 40.776C104.676 40.6173 104.471 40.412 104.312 40.16C104.163 39.8987 104.088 39.614 104.088 39.306V34.574C104.088 34.266 104.163 33.986 104.312 33.734C104.471 33.4727 104.676 33.2673 104.928 33.118C105.189 32.9593 105.474 32.88 105.782 32.88H110.654C110.971 32.88 111.256 32.9593 111.508 33.118C111.769 33.2673 111.975 33.4727 112.124 33.734C112.283 33.986 112.362 34.266 112.362 34.574V39.306C112.362 39.614 112.283 39.8987 112.124 40.16C111.975 40.412 111.769 40.6173 111.508 40.776C111.256 40.9253 110.971 41 110.654 41H105.782ZM105.782 39.852H110.654C110.803 39.852 110.929 39.8007 111.032 39.698C111.144 39.586 111.2 39.4553 111.2 39.306V34.574C111.2 34.4247 111.144 34.2987 111.032 34.196C110.929 34.084 110.803 34.028 110.654 34.028H105.782C105.633 34.028 105.502 34.084 105.39 34.196C105.287 34.2987 105.236 34.4247 105.236 34.574V39.306C105.236 39.4553 105.287 39.586 105.39 39.698C105.502 39.8007 105.633 39.852 105.782 39.852ZM128.219 41V34.574C128.219 34.266 128.293 33.986 128.443 33.734C128.601 33.4727 128.807 33.2673 129.059 33.118C129.32 32.9593 129.605 32.88 129.913 32.88H134.477V34.028H129.913C129.763 34.028 129.633 34.084 129.521 34.196C129.418 34.2987 129.367 34.4247 129.367 34.574V41H128.219ZM151.623 41C151.315 41 151.03 40.9253 150.769 40.776C150.517 40.6173 150.311 40.412 150.153 40.16C150.003 39.8987 149.929 39.614 149.929 39.306V34.574C149.929 34.266 150.003 33.986 150.153 33.734C150.311 33.4727 150.517 33.2673 150.769 33.118C151.03 32.9593 151.315 32.88 151.623 32.88H156.495C156.812 32.88 157.097 32.9593 157.349 33.118C157.61 33.2673 157.815 33.4727 157.965 33.734C158.123 33.986 158.203 34.266 158.203 34.574V37.514H151.077V39.306C151.077 39.4553 151.128 39.586 151.231 39.698C151.343 39.8007 151.473 39.852 151.623 39.852H158.203V41H151.623ZM151.077 36.366H157.041V34.574C157.041 34.4247 156.985 34.2987 156.873 34.196C156.77 34.084 156.644 34.028 156.495 34.028H151.623C151.473 34.028 151.343 34.084 151.231 34.196C151.128 34.2987 151.077 34.4247 151.077 34.574V36.366Z" fill="#00E9D8"/>
<path d="M57.9395 22.2757L59.7365 9.72449H59.9404L65.0427 20.0232L70.096 9.72449H70.297L72.1031 22.2757H70.8731L69.6331 13.2995L65.1952 22.2757H64.8746L60.3839 13.2313L59.151 22.2757H57.9395Z" fill="#016A99"/>
<path d="M83.6213 12.9923V22.2757H82.4438V20.6802C81.9433 21.2889 81.3816 21.7466 80.7587 22.0538C80.1359 22.3611 79.4547 22.5147 78.7152 22.5147C77.4012 22.5147 76.2791 22.0383 75.3492 21.0854C74.4192 20.1326 73.9541 18.9735 73.9541 17.6083C73.9541 16.2717 74.4235 15.1283 75.362 14.1782C76.3007 13.2282 77.4297 12.7532 78.7494 12.7532C79.5115 12.7532 80.2011 12.9153 80.8186 13.2395C81.4356 13.5638 81.9775 14.05 82.4438 14.6985V12.9919H83.6213V12.9923ZM78.8474 13.9054C78.1828 13.9054 77.5689 14.0688 77.0065 14.3954C76.444 14.7222 75.9965 15.181 75.6642 15.7719C75.3319 16.3628 75.1656 16.9877 75.1656 17.6467C75.1656 18.3001 75.3333 18.9252 75.6685 19.5216C76.0037 20.1182 76.4539 20.5827 77.0193 20.915C77.5846 21.2475 78.1911 21.4136 78.839 21.4136C79.4925 21.4136 80.1118 21.2488 80.697 20.9193C81.282 20.5897 81.7325 20.1436 82.0477 19.5813C82.3631 19.0187 82.5208 18.3853 82.5208 17.6805C82.5208 16.6067 82.1671 15.709 81.4597 14.9873C80.7521 14.2662 79.8814 13.9054 78.8474 13.9054Z" fill="#016A99"/>
<path d="M86.3262 12.9923H87.5208V14.6988C87.9923 14.0504 88.535 13.5641 89.1489 13.2398C89.7624 12.9157 90.4472 12.7535 91.2031 12.7535C92.5212 12.7535 93.6495 13.2286 94.5869 14.1785C95.5246 15.1286 95.9936 16.2719 95.9936 17.6087C95.9936 18.9738 95.529 20.133 94.5998 21.0857C93.6707 22.0385 92.5499 22.515 91.2373 22.515C90.4985 22.515 89.8194 22.3614 89.1999 22.0542C88.5805 21.747 88.0208 21.2892 87.5208 20.6805V25.672H86.3262V12.9923ZM91.1044 13.9054C90.0714 13.9054 89.2016 14.2662 88.4951 14.9879C87.7884 15.7096 87.4354 16.6073 87.4354 17.6811C87.4354 18.3858 87.5928 19.0193 87.9078 19.5818C88.2227 20.1442 88.6738 20.5902 89.2613 20.9199C89.8487 21.2493 90.4686 21.4142 91.1213 21.4142C91.7626 21.4142 92.3652 21.2481 92.9301 20.9156C93.4948 20.5833 93.9444 20.1187 94.2794 19.5221C94.6142 18.9257 94.7815 18.3006 94.7815 17.6472C94.7815 16.9882 94.6153 16.3632 94.2835 15.7725C93.9515 15.1816 93.5046 14.7227 92.9428 14.3959C92.3813 14.0688 91.7683 13.9054 91.1044 13.9054Z" fill="#016A99"/>
<path d="M98.0508 9.40869H99.2454V22.2757H98.0508V9.40869Z" fill="#016A99"/>
<path d="M109.543 19.1954L110.55 19.7245C110.22 20.3729 109.839 20.8965 109.406 21.2945C108.973 21.6928 108.486 21.9957 107.945 22.2033C107.404 22.4109 106.792 22.5148 106.109 22.5148C104.595 22.5148 103.41 22.0185 102.556 21.0258C101.702 20.0333 101.275 18.9112 101.275 17.6598C101.275 16.4823 101.637 15.4328 102.36 14.5113C103.277 13.3396 104.503 12.7537 106.041 12.7537C107.624 12.7537 108.888 13.354 109.832 14.5541C110.504 15.4018 110.846 16.4599 110.857 17.7282H102.504C102.527 18.8065 102.871 19.6905 103.538 20.3799C104.204 21.0693 105.027 21.4141 106.007 21.4141C106.479 21.4141 106.939 21.332 107.386 21.1677C107.833 21.0034 108.213 20.7853 108.527 20.5132C108.84 20.2409 109.179 19.8018 109.543 19.1954ZM109.543 16.6954C109.384 16.0584 109.152 15.5493 108.847 15.1682C108.542 14.7872 108.139 14.48 107.638 14.2467C107.137 14.0135 106.61 13.8969 106.058 13.8969C105.147 13.8969 104.364 14.1901 103.709 14.7758C103.23 15.2024 102.868 15.8422 102.624 16.6956H109.543V16.6954Z" fill="#016A99"/>
<path d="M113.264 9.72449H114.518V14.989H120.909V9.72449H122.163V22.2757H120.909V16.2176H114.518V22.2757H113.264V9.72449Z" fill="#016A99"/>
<path d="M132.836 19.1954L133.843 19.7245C133.513 20.3729 133.132 20.8965 132.699 21.2945C132.266 21.6928 131.779 21.9957 131.238 22.2033C130.697 22.4109 130.085 22.5148 129.402 22.5148C127.888 22.5148 126.703 22.0185 125.849 21.0258C124.995 20.0333 124.568 18.9112 124.568 17.6598C124.568 16.4823 124.93 15.4328 125.653 14.5113C126.57 13.3396 127.796 12.7537 129.334 12.7537C130.917 12.7537 132.181 13.354 133.125 14.5541C133.797 15.4018 134.139 16.4599 134.15 17.7282H125.797C125.82 18.8065 126.164 19.6905 126.831 20.3799C127.497 21.0693 128.32 21.4141 129.3 21.4141C129.772 21.4141 130.232 21.332 130.679 21.1677C131.126 21.0034 131.506 20.7853 131.819 20.5132C132.133 20.2409 132.472 19.8018 132.836 19.1954ZM132.836 16.6954C132.677 16.0584 132.445 15.5493 132.14 15.1682C131.835 14.7872 131.432 14.48 130.931 14.2467C130.43 14.0135 129.903 13.8969 129.351 13.8969C128.44 13.8969 127.657 14.1901 127.002 14.7758C126.523 15.2024 126.161 15.8422 125.917 16.6956H132.836V16.6954Z" fill="#016A99"/>
<path d="M145.628 12.9923V22.2757H144.451V20.6802C143.95 21.2889 143.388 21.7466 142.766 22.0538C142.143 22.3611 141.462 22.5147 140.722 22.5147C139.408 22.5147 138.286 22.0383 137.356 21.0854C136.426 20.1326 135.961 18.9735 135.961 17.6083C135.961 16.2717 136.43 15.1283 137.369 14.1782C138.307 13.2282 139.436 12.7532 140.756 12.7532C141.518 12.7532 142.208 12.9153 142.825 13.2395C143.442 13.5638 143.984 14.05 144.45 14.6985V12.9919H145.628V12.9923ZM140.854 13.9054C140.19 13.9054 139.576 14.0688 139.013 14.3954C138.451 14.7222 138.003 15.181 137.671 15.7719C137.339 16.3628 137.172 16.9877 137.172 17.6467C137.172 18.3001 137.34 18.9252 137.675 19.5216C138.01 20.1182 138.461 20.5827 139.026 20.915C139.591 21.2475 140.198 21.4136 140.846 21.4136C141.499 21.4136 142.119 21.2488 142.704 20.9193C143.289 20.5897 143.739 20.1436 144.054 19.5813C144.37 19.0187 144.527 18.3853 144.527 17.6805C144.527 16.6067 144.174 15.709 143.466 14.9873C142.759 14.2662 141.888 13.9054 140.854 13.9054Z" fill="#016A99"/>
<path d="M148.332 12.9923H149.527V14.6988C149.998 14.0504 150.541 13.5641 151.155 13.2398C151.768 12.9157 152.453 12.7535 153.209 12.7535C154.527 12.7535 155.655 13.2286 156.593 14.1785C157.53 15.1286 157.999 16.2719 157.999 17.6087C157.999 18.9738 157.535 20.133 156.606 21.0857C155.677 22.0385 154.556 22.515 153.243 22.515C152.504 22.515 151.825 22.3614 151.206 22.0542C150.586 21.747 150.027 21.2892 149.527 20.6805V25.672H148.332V12.9923ZM153.11 13.9054C152.077 13.9054 151.208 14.2662 150.501 14.9879C149.794 15.7096 149.441 16.6073 149.441 17.6811C149.441 18.3858 149.599 19.0193 149.914 19.5818C150.229 20.1442 150.68 20.5902 151.267 20.9199C151.855 21.2493 152.475 21.4142 153.127 21.4142C153.769 21.4142 154.371 21.2481 154.936 20.9156C155.501 20.5833 155.95 20.1187 156.285 19.5221C156.62 18.9257 156.788 18.3006 156.788 17.6472C156.788 16.9882 156.621 16.3632 156.29 15.7725C155.958 15.1816 155.511 14.7227 154.949 14.3959C154.387 14.0688 153.774 13.9054 153.11 13.9054Z" fill="#016A99"/>
<path d="M31.8565 8.9013C30.3699 9.64265 29.2181 10.2173 27.8971 10.8761C26.6532 8.50925 25.4372 6.19523 24.0059 3.47174C22.6067 6.10811 21.3677 8.44259 20.0907 10.849C18.8071 10.2333 17.6462 9.67648 16.131 8.94972C16.8394 13.5443 17.4928 17.7838 18.209 22.4286C15.9493 20.3907 13.9749 18.61 11.7769 16.6277C11.3263 17.7084 10.9596 18.5879 10.5157 19.6524C8.39941 19.212 6.29976 18.7749 3.88322 18.272C4.85028 21.0192 5.69274 23.4123 6.63508 26.0896C5.85341 25.7293 5.31872 25.4828 4.65476 25.1768C3.58701 22.2375 2.50608 19.2616 1.30176 15.9461C4.16222 16.6066 6.69951 17.1925 9.41652 17.8198C9.92933 16.4797 10.4103 15.223 10.9712 13.7575C12.5181 15.1249 13.9471 16.388 15.3763 17.6512C15.5175 17.5965 15.659 17.542 15.8002 17.4873C15.2509 13.781 14.7014 10.0744 14.1049 6.04894C16.035 7.02512 17.6383 7.83597 19.4143 8.73414C20.921 5.86133 22.3621 3.11352 23.995 0C25.6217 3.08191 27.0661 5.81878 28.5957 8.71672C30.3326 7.85745 31.9381 7.06341 33.9116 6.08744C33.3021 10.091 32.7423 13.7674 32.1827 17.4438C32.3008 17.5222 32.4189 17.6006 32.537 17.679C33.9667 16.438 35.3963 15.1968 37.0318 13.7773C37.5466 15.1537 38.0102 16.3932 38.539 17.8071C41.2049 17.2027 43.7965 16.6153 46.6953 15.9582C45.5074 19.2103 44.4396 22.1344 43.3652 25.0759C42.7928 25.3944 42.2524 25.6951 41.2779 26.2373C42.2822 23.4368 43.1447 21.0316 44.1424 18.2502C41.7313 18.7658 39.6819 19.2043 37.5217 19.6662C37.1045 18.6876 36.7218 17.7894 36.2223 16.6177C34.1211 18.5233 32.1422 20.318 29.8012 22.441C30.5077 17.7842 31.1536 13.5303 31.8565 8.9013Z" fill="url(#paint0_linear_612_1063)"/>
<path d="M33.513 35.3361C36.9693 33.3817 40.2962 31.5003 43.589 29.6383C44.5672 27.3391 45.3809 26.6925 46.7005 27.2244C47.6911 27.6235 48.1581 28.4097 47.953 29.4805C47.7018 30.792 46.6547 31.2298 44.5631 30.9186C41.6079 32.5786 38.6058 34.2651 35.444 36.0412C35.9799 37.716 36.4893 39.3077 37.1105 41.2489C33.6951 40.3769 30.4774 39.5553 27.2158 38.7226C27.2158 36.0987 27.2158 33.6016 27.2158 31.0266C29.2468 29.3852 31.2936 27.7313 33.2858 26.1214C33.777 23.9761 34.4865 23.2172 35.7933 23.374C36.8512 23.5008 37.5846 24.3868 37.5263 25.4667C37.4517 26.8463 36.5637 27.3863 34.3133 27.3281C32.5493 28.7499 30.6991 30.2409 28.8738 31.712C28.8738 33.6735 28.8738 35.5361 28.8738 37.5272C30.7256 38.0075 32.5084 38.4699 34.68 39.0334C34.2288 37.6031 33.9006 36.5639 33.513 35.3361Z" fill="url(#paint1_linear_612_1063)"/>
<path d="M19.1703 37.363C19.1703 35.3306 19.1703 33.5843 19.1703 31.7489C17.3729 30.297 15.5713 28.8416 13.7986 27.4096C11.0983 27.3857 10.6657 26.8486 10.4939 25.4965C10.3571 24.4201 11.1212 23.5261 12.1826 23.3782C13.4992 23.1947 14.2416 23.978 14.7015 26.1129C16.6942 27.7074 18.7492 29.3518 20.7976 30.9909C20.7976 33.4926 20.7976 35.9277 20.7976 38.538C17.5869 39.3699 14.397 40.1963 10.8606 41.1126C11.4792 39.2238 12.0062 37.6151 12.5718 35.888C9.50513 34.1583 6.56545 32.5002 3.67379 30.8692C1.37456 31.2249 0.386832 30.8548 0.0577918 29.5504C-0.196079 28.5442 0.41074 27.471 1.40191 27.1721C2.70774 26.7785 3.46895 27.3557 4.32396 29.445C7.648 31.3038 11.0342 33.1974 14.4845 35.1266C14.1198 36.2999 13.7905 37.3598 13.3264 38.853C15.4276 38.3175 17.2445 37.8542 19.1703 37.363Z" fill="url(#paint2_linear_612_1063)"/>
<path d="M24.8069 41.5126C26.1441 43.0552 26.2955 44.2371 25.3084 45.1421C24.5129 45.8713 23.3781 45.8417 22.5999 45.0714C21.6182 44.0997 21.7756 43.1294 23.2176 41.4656C23.2176 33.5461 23.2176 25.5811 23.2176 17.6582C21.7842 15.8365 21.6435 14.756 22.6985 13.8862C23.4814 13.2407 24.7532 13.3041 25.4409 14.0231C26.2906 14.9116 26.1156 15.9668 24.8067 17.5621C24.8069 25.4532 24.8069 33.417 24.8069 41.5126Z" fill="url(#paint3_linear_612_1063)"/>
<defs>
<linearGradient id="paint0_linear_612_1063" x1="23.9982" y1="26.2371" x2="23.9982" y2="-2.03301e-05" gradientUnits="userSpaceOnUse">
<stop offset="0.0064" stop-color="#00E9D8"/>
<stop offset="0.3649" stop-color="#05CBC0"/>
<stop offset="0.5335" stop-color="#04B0B5"/>
<stop offset="1" stop-color="#016A99"/>
</linearGradient>
<linearGradient id="paint1_linear_612_1063" x1="37.6083" y1="41.2486" x2="37.6083" y2="23.3537" gradientUnits="userSpaceOnUse">
<stop offset="0.0064" stop-color="#00E9D8"/>
<stop offset="0.3649" stop-color="#05CBC0"/>
<stop offset="0.5335" stop-color="#04B0B5"/>
<stop offset="1" stop-color="#016A99"/>
</linearGradient>
<linearGradient id="paint2_linear_612_1063" x1="10.3987" y1="41.1127" x2="10.3987" y2="23.3525" gradientUnits="userSpaceOnUse">
<stop offset="0.0064" stop-color="#00E9D8"/>
<stop offset="0.3649" stop-color="#05CBC0"/>
<stop offset="0.5335" stop-color="#04B0B5"/>
<stop offset="1" stop-color="#016A99"/>
</linearGradient>
<linearGradient id="paint3_linear_612_1063" x1="23.9692" y1="45.6696" x2="23.9692" y2="13.44" gradientUnits="userSpaceOnUse">
<stop offset="0.0064" stop-color="#00E9D8"/>
<stop offset="0.3649" stop-color="#05CBC0"/>
<stop offset="0.5335" stop-color="#04B0B5"/>
<stop offset="1" stop-color="#016A99"/>
</linearGradient>
</defs>
</svg>
